<svg version="1.1" id="Layer_1" xmlns="http://www.w3.org/2000/svg" xmlns:xlink="http://www.w3.org/1999/xlink" x="0px" y="0px"
	 width="100%" viewBox="0 0 638 682" enable-background="new 0 0 638 682" xml:space="preserve">
<path fill="#0A0A0A" opacity="1.000000" stroke="none" 
	d="
M1.323384,354.247986 
	C1.000000,237.705902 1.014502,121.411804 0.923120,5.117779 
	C0.920631,1.950118 1.213909,0.890223 4.879645,0.892331 
	C214.975372,1.013130 425.071136,1.014017 635.166870,0.887921 
	C638.927979,0.885663 639.071960,2.092764 639.069397,5.164273 
	C638.985291,105.130356 639.000000,205.096527 639.000000,305.531342 
	C636.230042,308.411804 633.985901,306.956177 632.145325,304.805145 
	C629.440552,301.644104 626.266113,299.484558 622.117310,298.775452 
	C620.798523,298.550049 619.329468,297.988434 618.668762,296.898499 
	C615.863281,292.270447 610.510742,290.773010 606.956238,287.094635 
	C606.276672,286.391388 605.490051,285.592712 604.600586,285.273346 
	C592.561829,280.951447 583.379395,271.782318 571.970215,266.127197 
	C564.457214,262.403259 556.279419,259.154053 549.476135,253.834991 
	C547.992188,252.674774 546.351074,251.724609 544.564392,251.516357 
	C540.177917,251.005127 536.772827,248.665680 533.636902,245.921814 
	C531.970459,244.463730 530.346924,243.819443 527.822937,244.248611 
	C523.562439,242.382690 520.963074,239.021210 517.782654,236.395081 
	C500.887939,222.444778 481.641968,214.380844 459.659271,214.281647 
	C405.666809,214.037979 351.672516,214.205627 297.678955,214.198944 
	C294.183258,214.198517 290.664642,214.384705 286.887512,212.962494 
	C285.897125,212.794083 285.333893,212.716095 284.379272,212.511292 
	C266.506561,197.409439 251.151428,180.252960 234.707718,164.211380 
	C222.541153,152.342377 210.188721,140.611176 198.782639,128.031006 
	C190.944092,119.385559 181.511093,115.490860 170.460419,114.064850 
	C142.361771,110.438911 119.953041,120.929291 102.060875,142.008759 
	C85.840134,161.119064 78.961975,183.578293 79.036087,208.474258 
	C79.067261,218.946472 79.870445,229.452805 78.283707,240.275436 
	C76.317947,242.911407 76.497955,245.603973 76.498108,248.261093 
	C76.499031,264.048004 76.397667,279.835907 76.545349,295.621399 
	C76.610092,302.541016 74.252472,307.308990 67.905914,310.976624 
	C47.618858,322.700256 28.617662,336.353027 10.304766,350.978271 
	C7.912877,352.888458 5.669480,356.174225 1.323384,354.247986 
z"/>
<path fill="#111111" opacity="1.000000" stroke="none" 
	d="
M601.238525,682.684937 
	C430.979095,683.000000 260.958221,683.000000 90.468658,683.000000 
	C87.464027,679.031433 89.733116,675.123596 90.630829,671.484314 
	C99.013191,637.502747 114.391853,607.029968 136.505386,579.821106 
	C151.807953,560.992554 170.107681,545.752869 190.124283,532.337280 
	C193.090775,530.349060 197.074677,529.820740 199.323776,526.016846 
	C202.178757,524.507935 204.890930,524.805908 207.524246,524.801941 
	C249.953094,524.738037 292.381989,524.765625 334.810883,524.763062 
	C337.151123,524.762939 339.457977,524.997253 342.215759,525.457153 
	C343.572906,525.541016 344.473358,525.545593 345.691406,526.075012 
	C366.318817,545.037292 385.051117,565.372498 405.066101,584.386780 
	C416.288269,595.047913 427.261414,605.947327 438.310394,616.776794 
	C443.632812,621.993347 450.577454,623.266785 457.461304,624.324158 
	C475.126190,627.037415 491.955231,624.594971 507.246490,614.867798 
	C522.841125,604.947693 534.111816,591.258057 541.563110,574.376221 
	C543.376343,570.268066 545.241699,566.183228 547.112183,561.683350 
	C547.910706,560.781860 548.603577,560.410522 549.797058,560.189514 
	C550.786255,560.482117 550.270813,559.794617 550.667419,560.282471 
	C556.191040,567.076233 562.845703,573.156494 565.100098,582.072266 
	C565.638428,584.201172 565.830994,586.528015 567.563965,587.935486 
	C574.495850,593.565369 577.691956,601.976929 579.947815,609.597473 
	C583.148254,620.408875 589.092102,630.184326 591.012207,641.400146 
	C591.733093,645.611145 593.541504,649.643250 595.479248,653.521545 
	C596.077271,654.718445 596.870667,655.985657 596.786804,657.268982 
	C596.260681,665.317322 599.305359,672.550781 601.713257,679.939392 
	C601.976196,680.746338 601.850708,681.588074 601.238525,682.684937 
z"/>
<path fill="#0F0F0F" opacity="1.000000" stroke="none" 
	d="
M198.722900,527.334595 
	C198.914429,529.863892 197.322632,530.696533 195.704010,531.676086 
	C172.624390,545.643738 152.493790,562.905823 135.754349,584.200928 
	C126.255676,596.284668 117.784393,609.030823 110.887459,622.639709 
	C102.168472,639.843933 95.275223,657.870422 91.743187,676.995483 
	C91.413231,678.782166 90.682106,680.494629 90.068634,682.620789 
	C61.862839,683.000000 33.725277,682.929688 5.589005,683.087708 
	C2.013870,683.107727 0.886591,682.554016 0.891568,678.597839 
	C1.027273,570.711121 1.000000,462.824188 1.000000,354.468658 
	C4.698911,354.234985 6.562724,351.126373 8.909354,349.266205 
	C28.209431,333.966705 48.141209,319.622223 69.608459,307.473083 
	C73.796570,305.102905 75.033966,301.042419 75.019295,296.399384 
	C74.966141,279.582550 74.975655,262.765381 75.033295,245.948578 
	C75.039818,244.044846 74.315132,241.899673 76.501404,240.154892 
	C80.056313,241.999161 79.159325,245.296906 79.174980,248.134033 
	C79.299698,270.725006 79.277824,293.316803 79.225990,315.908112 
	C79.179497,336.172394 79.470993,356.437744 79.012077,377.150238 
	C79.354790,396.397430 78.632851,415.211456 79.255226,433.993042 
	C80.019722,457.063385 88.131821,477.402222 104.040550,494.401794 
	C109.970261,500.738098 116.443062,506.435333 124.093437,511.345642 
	C124.712685,511.598907 124.961632,511.693634 125.549042,511.994812 
	C130.389954,516.353210 136.231552,517.837097 141.702011,519.996033 
	C149.241730,522.971619 157.139984,524.595764 165.529633,525.655396 
	C167.934219,528.805481 169.724030,526.912720 171.920990,525.332642 
	C181.060593,525.080139 189.939941,523.235962 198.722900,527.334595 
z"/>
<path fill="#0E0E0E" opacity="1.000000" stroke="none" 
	d="
M601.468628,683.000000 
	C597.687012,675.154175 594.166626,667.467163 594.795044,658.490662 
	C595.066711,654.609924 592.084106,651.140259 590.580200,647.558655 
	C587.654358,640.590637 587.109680,632.968689 583.683289,626.153259 
	C581.221985,621.257507 579.408630,616.077026 578.184204,610.509644 
	C577.481384,607.313904 575.128357,602.999390 572.916077,599.441589 
	C570.443176,595.464600 568.695557,591.143250 564.739380,588.260132 
	C564.145508,587.827393 563.652344,586.813110 563.656006,586.070496 
	C563.708618,575.327637 553.430786,570.195862 549.908569,561.061096 
	C547.797546,559.137634 547.947510,557.064331 548.427612,554.849182 
	C550.483276,545.365784 550.844727,535.761475 550.832886,526.075989 
	C550.744324,453.317352 550.798340,380.558502 550.776306,307.799744 
	C550.769958,286.962158 544.194153,268.301056 531.984619,251.508926 
	C530.458984,249.410660 528.313721,247.540787 528.543701,244.127991 
	C529.670837,242.235245 531.464600,241.401031 532.493591,242.586807 
	C537.554749,248.418808 545.556946,248.455826 551.443665,252.589874 
	C554.660034,254.848663 557.781067,257.326630 562.037842,257.586334 
	C564.653503,257.745880 566.653687,259.644928 568.341675,261.357422 
	C572.388489,265.462860 578.092529,266.475494 582.591248,269.529907 
	C586.755127,272.356964 592.863586,272.554993 594.903809,278.451874 
	C595.552063,280.325409 597.551453,280.814148 599.452026,280.995605 
	C602.536621,281.290070 605.560364,282.262726 607.364929,284.707520 
	C610.685486,289.206207 617.882629,289.154144 619.551086,295.403168 
	C626.832153,296.597534 631.860779,301.570740 637.263367,305.926849 
	C637.471802,306.094879 637.911072,305.976746 638.621338,305.995972 
	C639.000000,430.202148 638.975891,554.404297 639.109070,678.606323 
	C639.113342,682.580627 637.969971,683.171997 634.400940,683.089966 
	C623.584778,682.841370 612.759216,683.000000 601.468628,683.000000 
z"/>
<path fill="#2A5271" opacity="1.000000" stroke="none" 
	d="
M528.416992,243.467682 
	C537.363098,253.767502 544.041809,265.002228 548.208984,277.664764 
	C551.029846,286.236176 552.962463,295.009338 552.968567,304.064209 
	C553.020020,380.336121 552.976257,456.608093 553.061035,532.879944 
	C553.071289,542.113953 551.550598,551.089661 549.648743,560.473328 
	C549.337891,561.211975 549.098938,561.538757 548.718933,562.015076 
	C546.347839,563.493225 544.735840,562.454102 542.755371,561.192139 
	C537.601379,557.907898 535.290833,552.466187 532.073181,547.767212 
	C528.665771,542.791077 523.784912,539.328125 519.867371,534.875916 
	C515.650269,530.083130 510.615417,525.982971 506.351837,521.165710 
	C505.244141,519.914185 504.063446,518.765076 502.571106,517.971558 
	C500.589783,516.918030 499.699890,515.294983 500.102600,512.695679 
	C500.593140,509.294617 498.173004,510.327759 496.842285,510.196564 
	C490.079956,509.529846 488.984253,508.422913 488.849640,501.541626 
	C488.740082,495.941040 488.942474,490.334320 488.509918,484.735565 
	C488.037262,490.182648 488.273254,495.640625 488.150146,501.090820 
	C488.098267,503.386963 488.417328,505.771667 486.691925,508.118225 
	C485.745422,508.907532 484.972321,509.118958 483.720093,509.077942 
	C479.913513,507.679932 479.052185,504.432007 478.134003,501.518829 
	C476.595032,496.635986 474.794281,491.809021 473.966125,486.325623 
	C486.626465,459.021545 487.444183,432.133026 474.118866,405.176361 
	C470.998352,398.863678 465.690826,394.509430 461.013184,389.571106 
	C459.184235,387.640259 457.072571,385.901306 456.966553,382.547852 
	C457.956573,378.791595 461.042786,377.406677 463.413116,375.408325 
	C488.248352,354.470123 506.946381,329.243866 517.023560,298.127075 
	C520.802856,286.457214 522.362122,274.417755 520.008911,262.187531 
	C517.245361,247.824677 507.329590,243.078873 494.472290,244.418655 
	C484.039490,245.505768 475.226257,250.509552 466.583160,255.937073 
	C462.637238,258.414978 458.979004,261.359070 454.842285,263.511292 
	C450.491638,265.774811 447.817993,264.096313 448.416809,259.273376 
	C448.909332,255.306732 448.655457,251.289200 449.560455,247.353195 
	C450.240814,244.394135 448.988281,243.002930 445.763855,243.333038 
	C435.469055,244.386978 435.315582,244.638504 435.054840,254.962692 
	C434.827118,263.977783 433.139282,272.804535 430.849884,281.513062 
	C430.284851,283.662445 429.071564,285.461853 427.485321,286.985748 
	C417.623230,296.460480 408.535431,306.627106 400.149750,317.427948 
	C399.130646,318.740540 398.040466,320.023743 396.062439,320.783325 
	C392.849731,321.230377 391.029053,319.417419 389.262085,317.658752 
	C371.544037,300.023834 353.889679,282.325073 336.209106,264.652588 
	C335.014618,263.458649 334.150085,262.042358 333.091888,260.323181 
	C332.367706,257.149597 333.811554,254.838196 334.917114,252.439758 
	C336.511780,248.980331 338.619293,245.725388 339.440704,241.953384 
	C340.407318,237.514221 340.044983,233.305878 336.341827,230.094177 
	C333.430817,227.569458 330.340485,227.670105 327.416748,230.206039 
	C324.742859,232.525314 322.838409,235.433060 321.141571,238.493042 
	C320.096863,240.377029 319.202240,242.378433 316.754700,243.486664 
	C313.811768,243.520081 312.285736,241.667419 310.661194,240.063904 
	C303.379425,232.876312 296.161194,225.624481 288.962769,218.353653 
	C287.261841,216.635590 285.148743,215.032791 285.876984,211.842957 
	C342.359772,211.631561 398.589325,211.775696 454.818604,211.692719 
	C480.599548,211.654663 503.039825,220.029922 522.205444,237.215240 
	C524.302185,239.095337 526.166992,241.234039 528.416992,243.467682 
z"/>
<path fill="#63222F" opacity="1.000000" stroke="none" 
	d="
M77.420906,379.277527 
	C77.098770,340.290405 77.052605,301.573761 77.002518,262.857117 
	C76.993065,255.545776 76.968071,248.234482 76.900085,240.455521 
	C76.900772,227.156204 76.327103,214.285706 77.121475,201.500229 
	C79.360191,165.468369 94.551521,136.647247 127.038589,119.192703 
	C146.484909,108.744644 167.245071,108.323807 187.983917,116.379402 
	C189.718307,117.053093 191.263306,117.887718 192.603104,119.226860 
	C223.015411,149.624161 253.451218,179.997955 284.068542,210.662689 
	C282.488892,213.790558 279.580444,213.105652 277.030823,213.115128 
	C253.072342,213.204086 229.111816,213.313278 205.156021,213.053940 
	C199.009125,212.987396 193.770218,214.595978 188.785065,217.877762 
	C164.933395,233.579666 150.757004,255.298523 146.948425,283.815094 
	C144.643936,301.069824 147.972610,317.160309 155.311493,332.660248 
	C156.237106,334.615173 157.338303,336.505554 157.019257,339.194519 
	C153.602844,344.961975 147.278549,345.051025 142.394028,347.614655 
	C129.910721,354.166534 116.782173,359.486359 105.042969,367.455536 
	C99.444847,371.255859 92.960152,373.528870 87.867775,378.344604 
	C85.367569,380.708984 81.413269,381.935699 77.420906,379.277527 
z"/>
<path fill="#353664" opacity="1.000000" stroke="none" 
	d="
M156.028198,340.346741 
	C151.577682,330.511475 147.572556,320.926880 145.543564,310.499603 
	C141.807037,291.297150 144.589554,272.930969 152.604355,255.467834 
	C161.189316,236.762436 174.959961,222.596390 193.161896,212.772110 
	C195.666748,211.420135 198.094025,211.056122 200.786514,211.056839 
	C228.280899,211.064255 255.775269,211.038361 283.762085,210.985504 
	C284.680878,211.057373 285.107269,211.165527 285.831970,211.426941 
	C287.332458,214.847000 290.283173,216.624863 292.542542,218.960373 
	C300.223236,226.899857 308.030060,234.717331 315.963196,242.881470 
	C317.350128,244.487534 317.088470,246.013397 316.513214,247.396255 
	C313.644409,254.292953 310.869537,261.119446 305.168915,266.495087 
	C285.183228,285.341431 266.876678,305.769989 250.769531,328.002319 
	C245.875778,334.757019 240.014420,336.954590 232.455658,337.926788 
	C211.818649,340.581085 191.604370,345.188904 172.006271,352.298767 
	C170.746490,352.755829 169.458954,353.061676 167.726273,353.030334 
	C162.307022,350.054108 157.485565,346.911774 156.028198,340.346741 
z"/>
<path fill="#373865" opacity="1.000000" stroke="none" 
	d="
M457.682434,382.045227 
	C459.214417,385.778473 462.172668,387.882538 464.745148,390.110260 
	C477.190674,400.888092 482.236847,415.317230 484.819000,430.803406 
	C487.458984,446.636353 485.694489,462.184235 480.062164,477.249329 
	C478.958618,480.201111 477.849823,483.163239 475.460266,485.791199 
	C474.141968,485.765991 473.455658,485.093292 472.984100,484.174286 
	C472.338776,482.916656 472.146667,481.016113 470.086700,481.493652 
	C468.397125,481.885345 468.162323,483.641144 467.671631,484.979767 
	C465.462128,491.007446 464.024292,497.276825 461.993652,503.365540 
	C460.686829,507.283905 459.276215,511.127502 456.696686,514.894104 
	C453.901611,517.628113 451.096100,519.711182 448.316193,521.808777 
	C440.566284,527.656433 432.253540,530.733887 422.079041,530.414612 
	C400.156525,529.726746 378.197540,530.190979 356.253540,530.218140 
	C352.896667,530.222290 349.601105,530.111511 346.154114,528.248718 
	C345.262817,527.822693 344.785553,527.595337 344.114044,527.183472 
	C339.002594,525.117126 335.635101,521.298462 332.218475,517.565063 
	C330.754211,515.965027 329.600739,514.172180 330.458954,511.484070 
	C331.602905,510.368378 331.995239,509.359131 332.001953,508.100952 
	C332.043549,500.314667 331.852661,492.534546 331.594879,484.755524 
	C330.479431,494.054382 329.823303,494.899750 323.528748,494.998474 
	C312.896362,495.165253 312.824615,495.105103 311.415070,484.787567 
	C310.833618,486.908264 311.481720,489.182312 310.082001,491.437805 
	C307.883911,493.380524 306.480164,491.920227 304.685913,490.643982 
	C301.275299,486.841583 298.200409,483.226196 293.923706,480.344727 
	C292.421753,477.381134 289.672943,476.186157 287.699432,474.202515 
	C263.918365,450.299500 240.037399,426.495941 216.225479,402.623505 
	C214.145645,400.538422 211.618042,398.699890 211.281067,395.013580 
	C212.830963,390.117249 216.875626,387.638306 219.796555,384.300323 
	C229.006897,373.774902 237.617981,362.770020 246.354980,351.865845 
	C248.974976,348.595978 252.351486,347.120392 256.312775,346.982239 
	C265.307007,346.668640 274.311035,346.699890 283.305939,346.945160 
	C288.320984,347.081879 290.256500,349.001862 290.014252,354.200195 
	C289.581360,363.489136 288.171936,372.709503 287.609833,381.999023 
	C287.056519,391.142517 286.616089,400.267273 288.043732,409.392303 
	C288.521515,412.446167 290.046936,413.579926 293.001923,413.811493 
	C302.732422,414.574005 304.050842,413.622375 304.690674,403.514221 
	C305.121063,396.714630 305.152832,389.901550 305.658264,383.086914 
	C306.322388,374.132294 307.275330,365.208374 308.045013,356.267670 
	C308.601288,349.805786 310.828796,348.001648 317.415161,347.862183 
	C321.580627,347.773956 325.762482,347.621796 329.910156,347.896545 
	C334.836761,348.222870 335.147064,344.802734 335.596405,341.466003 
	C336.045837,338.128571 335.336395,335.557587 331.257782,335.034698 
	C328.453278,334.675201 325.684479,334.183350 322.836273,334.130493 
	C313.523010,333.957825 311.538788,331.707031 313.086121,322.531281 
	C315.023682,311.041504 317.703003,299.705383 320.926422,288.504913 
	C323.274902,280.344727 325.575043,272.163391 329.205872,264.444580 
	C330.049744,262.650665 330.713379,260.683594 333.265503,259.880096 
	C335.309113,261.260162 337.021088,262.577789 338.538239,264.090820 
	C355.814758,281.320251 373.057190,298.583862 390.324554,315.822479 
	C391.729401,317.224976 393.250977,318.510559 395.036835,320.012207 
	C396.538330,322.355438 395.246613,324.025665 394.127319,325.654602 
	C384.413757,339.791138 375.576477,354.461029 367.818176,369.749969 
	C358.617676,387.881073 350.328033,406.383484 347.384796,426.765106 
	C346.788879,430.891571 346.790588,435.104340 347.303101,439.222473 
	C348.760834,450.935608 359.253326,455.201874 369.071014,448.184906 
	C373.990417,444.668884 377.977264,440.259857 381.442596,435.319580 
	C388.918671,424.661438 394.979858,413.202972 400.818115,401.605072 
	C404.370117,394.548889 406.557678,393.241730 414.212769,394.052490 
	C426.320557,395.334839 437.103516,391.501862 447.565979,386.037964 
	C450.731476,384.384827 453.340820,381.357361 457.682434,382.045227 
z"/>
<path fill="#662532" opacity="1.000000" stroke="none" 
	d="
M211.807312,395.820068 
	C232.786865,416.550537 253.510315,437.019135 274.096191,457.625153 
	C281.141937,464.677734 288.637756,471.302246 295.093140,479.411713 
	C292.940491,481.885223 290.137573,480.906708 287.579376,480.939362 
	C284.527283,480.978363 282.924683,481.927856 282.971802,485.254120 
	C283.072968,492.397095 283.072571,499.543854 282.971558,506.686859 
	C282.925232,509.962982 284.425903,510.958008 287.521667,511.048065 
	C297.108612,511.326935 302.513092,506.442566 303.014740,496.874207 
	C303.151367,494.268707 302.290375,491.541290 304.104034,488.796875 
	C305.877716,489.634064 307.362061,490.748108 309.204468,492.032745 
	C311.720764,493.197845 312.001495,495.134613 312.003265,497.171295 
	C312.006134,500.460968 312.008545,503.750793 311.998932,506.697357 
	C312.264862,504.326752 311.434998,501.520782 312.889954,498.589539 
	C316.245392,496.247009 317.996948,498.943085 319.855774,500.509094 
	C323.511871,503.589264 326.538727,507.337494 330.275085,510.886810 
	C330.690735,511.337769 330.819336,511.550598 330.947052,512.136414 
	C334.056061,518.156677 339.749603,521.455566 343.759735,526.714478 
	C298.192902,527.021423 252.465973,527.038269 206.739059,527.083130 
	C204.421951,527.085388 202.105072,527.327759 199.399490,527.577515 
	C189.991959,527.076355 180.964554,526.888916 171.462173,527.219849 
	C169.653473,528.224243 168.257996,528.635559 166.362274,527.412109 
	C153.149963,527.098999 141.468124,522.764404 130.069275,517.398865 
	C128.125763,516.484070 126.218979,515.490356 125.115570,513.153687 
	C126.986191,511.531677 128.127777,509.759460 128.710190,507.614014 
	C129.899033,503.234680 132.444992,500.902893 137.288651,500.942871 
	C144.621994,501.003387 145.338577,501.246857 147.997284,507.347046 
	C148.141891,507.678833 148.252533,507.960938 148.854050,508.309143 
	C146.233017,500.030975 143.689774,492.031250 141.029419,484.067169 
	C140.593597,482.762482 140.228943,481.384033 138.571198,481.367950 
	C136.854538,481.351288 136.531250,482.854675 136.138824,484.104797 
	C133.805038,491.539490 131.470276,498.973663 128.973434,506.355713 
	C128.230774,508.551422 127.686081,510.859863 125.418701,512.600220 
	C118.873665,512.675049 115.182640,507.849854 111.045860,504.322510 
	C91.184608,487.387085 79.741554,465.675568 77.280617,439.761536 
	C76.153984,427.897949 77.019302,415.843903 77.007561,403.876221 
	C76.999725,395.897461 77.038383,387.918610 77.101273,379.473450 
	C82.164085,378.687225 87.176765,378.456879 90.258682,373.433929 
	C90.820480,372.518341 91.995110,371.819611 93.038422,371.382904 
	C104.803123,366.458710 114.712822,358.257690 126.508324,353.141052 
	C136.148163,348.959503 145.412811,343.754639 155.715210,340.008850 
	C159.646133,343.718170 163.192139,347.460266 166.943161,351.454895 
	C166.563553,354.425446 164.208710,355.093048 162.109344,356.052063 
	C148.929581,362.072662 135.947266,368.462219 124.883232,378.027100 
	C115.941315,385.757416 109.424690,394.776031 109.037689,407.323975 
	C108.509308,424.455933 121.718315,434.024048 135.916946,434.759094 
	C151.943146,435.588684 166.168259,429.626984 179.433365,421.079712 
	C188.713913,415.099884 196.892578,407.838959 204.560120,399.941284 
	C206.476883,397.967041 208.193985,395.457458 211.807312,395.820068 
z"/>
<path fill="#2C5372" opacity="1.000000" stroke="none" 
	d="
M345.930786,528.336792 
	C371.397552,528.026001 397.070251,527.480286 422.704956,528.231812 
	C433.131927,528.537476 440.890533,524.332397 448.629333,518.769592 
	C451.191101,516.928162 453.596497,514.869202 456.421997,512.733398 
	C459.416931,511.559448 460.246368,509.217072 460.996521,506.825562 
	C462.164551,503.101624 464.477020,501.032349 468.587280,500.972900 
	C473.060181,500.908264 477.255798,500.984589 479.411987,505.974731 
	C479.907745,507.122040 479.705841,509.900635 482.788940,508.152771 
	C483.786652,507.998260 484.484711,507.998627 485.531830,507.998718 
	C488.882751,510.208710 492.196228,511.236115 495.961975,510.921265 
	C497.596710,510.784576 499.275177,510.982300 500.780975,512.599792 
	C501.131287,513.576782 501.055634,514.606079 501.426697,514.805908 
	C509.783661,519.307190 515.161743,527.156067 521.586487,533.634460 
	C527.691223,539.790222 535.168091,545.046387 538.425842,554.072998 
	C539.635376,557.424255 544.546204,559.439636 548.173584,562.114380 
	C544.635437,575.509277 538.164062,587.487976 529.309875,598.222534 
	C518.698242,611.087646 505.683746,620.485901 489.538910,624.894653 
	C473.185394,629.360413 456.961212,628.372681 441.192505,621.918396 
	C440.006287,621.432861 438.904724,620.555298 437.980743,619.640808 
	C407.344635,589.318237 376.734985,558.968933 345.930786,528.336792 
z"/>
<path fill="#111111" opacity="1.000000" stroke="none" 
	d="
M166.027756,527.481873 
	C167.387177,527.131165 168.780014,527.124939 170.584564,527.195251 
	C169.642792,530.051086 168.174469,531.808594 166.027756,527.481873 
z"/>
<path fill="#FDFDFD" opacity="1.000000" stroke="none" 
	d="
M212.235672,395.719177 
	C201.949570,405.352722 192.415665,415.407959 180.660889,422.888428 
	C169.279739,430.131073 157.148163,435.120605 143.604477,436.673584 
	C125.518959,438.747314 110.673653,429.954987 107.482475,414.315369 
	C104.957634,401.941437 109.363113,391.390533 117.632820,382.284210 
	C128.387192,370.441772 142.152283,363.046570 156.362900,356.354645 
	C159.667984,354.798248 163.084244,353.477905 166.798767,351.878235 
	C190.847427,343.109955 215.263657,337.604797 240.294403,334.751831 
	C242.353317,334.517120 243.869263,333.725128 245.194794,331.887573 
	C260.809875,310.239777 277.963654,289.835602 297.288208,271.452545 
	C305.698456,263.452026 312.253143,254.761169 316.089325,243.537689 
	C318.609497,239.106110 320.867249,234.879074 323.615173,230.999176 
	C326.208893,227.337006 329.647980,224.606995 334.594421,226.360168 
	C339.565857,228.122269 341.558044,232.148941 342.003601,237.114212 
	C342.438629,241.961533 340.301300,246.136673 338.361450,250.327454 
	C336.975769,253.321075 335.380432,256.217682 333.783142,259.504669 
	C325.441864,276.880432 321.064941,295.117706 317.046661,313.453674 
	C315.979584,318.322876 315.519806,323.325531 314.441589,328.191711 
	C313.805359,331.063141 314.888184,331.587006 317.392334,331.732788 
	C322.871613,332.051788 328.332611,332.672272 333.807373,333.086090 
	C336.976807,333.325623 338.272552,334.513702 338.039917,338.062469 
	C337.240356,350.259369 337.391174,350.219696 325.239288,350.068878 
	C320.756012,350.013214 315.261475,348.700317 312.058838,350.779999 
	C308.658020,352.988251 310.045441,359.024780 309.547363,363.389221 
	C307.714966,379.446716 306.766968,395.580780 306.220428,411.726959 
	C306.103638,415.177246 305.239563,416.403870 301.722717,416.075165 
	C298.254303,415.751007 294.693604,415.680115 291.243073,416.087891 
	C287.092926,416.578339 286.284424,414.602325 285.894592,411.049286 
	C283.785248,391.825989 285.958099,372.788422 288.278992,353.777313 
	C288.771881,349.740234 287.637360,348.979034 283.962769,349.075378 
	C274.306488,349.328430 264.640442,349.334259 254.980148,349.241730 
	C251.806107,349.211334 249.864716,350.465088 247.994705,352.979370 
	C236.955582,367.821716 225.195084,382.073944 212.235672,395.719177 
z"/>
<path fill="#FCFDFD" opacity="1.000000" stroke="none" 
	d="
M458.203613,382.067932 
	C450.026886,387.211487 441.977173,391.809662 432.933075,394.440613 
	C425.594269,396.575562 418.147919,396.763123 410.659576,396.005829 
	C407.230713,395.659119 405.411804,396.593292 403.816711,399.920074 
	C396.555176,415.065155 389.076721,430.133698 378.019073,443.014069 
	C374.633453,446.957764 370.659424,450.187561 365.798431,452.262024 
	C356.792267,456.105347 348.468872,452.249084 345.916779,442.795288 
	C343.816742,435.016266 344.997253,427.226105 346.590118,419.555573 
	C351.208282,397.316162 361.216980,377.253052 371.989441,357.515198 
	C378.930115,344.798187 386.698883,332.604858 395.240601,320.499939 
	C405.170624,307.574493 415.300690,295.252991 427.079193,284.395966 
	C428.236603,283.329102 428.747803,282.057312 429.110565,280.534088 
	C431.701385,269.656036 433.795593,258.715088 432.715942,247.468613 
	C432.428284,244.472153 433.251617,243.330017 436.250336,242.964340 
	C441.350006,242.342453 446.398407,241.300232 452.195160,240.310547 
	C451.425262,248.163406 450.685608,255.707901 449.920380,263.513092 
	C451.890045,263.598114 453.006226,262.287750 454.260956,261.467621 
	C461.634460,256.648132 468.969543,251.775070 476.731445,247.580093 
	C484.100159,243.597626 492.064392,242.012344 500.296692,242.271561 
	C514.008362,242.703323 522.151123,252.030884 522.991699,267.490692 
	C524.174316,289.238831 517.031006,308.711487 506.565643,327.195343 
	C494.366364,348.741638 478.471680,367.116882 458.203613,382.067932 
z"/>
<path fill="#F0F1F4" opacity="1.000000" stroke="none" 
	d="
M482.934662,507.665497 
	C482.362244,509.440399 485.665894,511.517334 482.536041,512.474243 
	C479.560303,513.384094 479.046478,510.984070 478.412415,508.903717 
	C476.561096,502.829987 471.478455,500.143982 465.626923,502.343201 
	C462.856812,503.384308 463.133026,506.408508 462.482117,508.623383 
	C461.679047,511.356018 460.692627,513.214417 457.115936,512.560425 
	C460.056732,502.832123 463.272491,493.082275 466.694031,483.405212 
	C467.309296,481.665131 466.855225,478.974579 470.236633,478.879242 
	C473.759003,478.779968 473.532959,481.362854 474.274475,483.390381 
	C474.501068,484.010010 474.758850,484.618256 475.096893,485.610657 
	C477.721191,493.104065 480.250977,500.218567 482.934662,507.665497 
z"/>
<path fill="#E1E6EB" opacity="1.000000" stroke="none" 
	d="
M501.383881,512.828003 
	C497.264709,512.839905 493.517487,512.513977 489.800476,512.723755 
	C486.695923,512.898987 485.629150,511.735168 485.960419,508.412720 
	C485.944031,499.716553 485.956085,491.433655 486.112885,483.153534 
	C486.144836,481.465393 484.993774,478.809174 488.501892,478.940521 
	C491.578735,479.055725 490.591095,481.415863 490.612244,482.984070 
	C490.710663,490.274750 490.776733,497.569946 490.611359,504.858032 
	C490.542267,507.903259 491.596893,509.035492 494.615906,508.767517 
	C496.917847,508.563171 499.261078,508.610443 501.569366,508.776337 
	C502.819794,508.866211 504.772308,507.804077 505.043030,510.290283 
	C505.333618,512.959045 503.369446,512.596924 501.383881,512.828003 
z"/>
<path fill="#ECECF0" opacity="1.000000" stroke="none" 
	d="
M446.938721,500.842377 
	C447.200806,502.716797 447.364990,504.198792 448.725433,505.964050 
	C450.319122,497.849548 451.811676,490.171783 453.345306,482.502228 
	C453.681854,480.819244 453.475983,478.471283 456.314026,478.992920 
	C459.691986,479.613831 457.487335,481.906494 457.234497,483.239838 
	C455.625366,491.726532 453.792206,500.170807 452.031250,508.628693 
	C451.635559,510.529205 451.752228,512.562378 448.746979,512.677246 
	C445.441315,512.803589 445.571716,510.461823 445.068115,508.489532 
	C443.270935,501.451233 441.519775,494.401123 438.968628,487.207886 
	C437.445251,493.337158 435.923462,499.466858 434.397247,505.595428 
	C434.036377,507.044525 433.524902,508.471405 433.324219,509.941467 
	C433.040741,512.017578 431.922668,512.627747 429.948364,512.633972 
	C427.771942,512.640808 427.291992,511.562836 426.907410,509.634003 
	C425.126343,500.701691 423.081299,491.822174 421.281952,482.893250 
	C421.024902,481.617554 419.388275,479.587555 422.341034,478.957886 
	C425.091949,478.371185 425.266785,480.391632 425.603424,482.139740 
	C427.139191,490.114990 428.620422,498.100739 430.376831,507.442078 
	C432.418793,499.286163 434.141296,492.401581 435.866852,485.517822 
	C436.189392,484.231110 436.523285,482.947235 436.853455,481.662445 
	C437.180878,480.388214 437.284363,479.014221 439.159546,478.948639 
	C441.111023,478.880310 441.692871,479.996918 442.093323,481.622864 
	C443.640930,487.906555 445.268555,494.170502 446.938721,500.842377 
z"/>
<path fill="#F1F1F5" opacity="1.000000" stroke="none" 
	d="
M414.808655,496.650940 
	C412.565186,497.426056 411.838959,498.278748 413.125885,500.338074 
	C415.403564,503.982758 417.421753,507.789581 419.645508,511.699066 
	C417.113434,513.311218 415.398621,512.943604 414.049164,510.319733 
	C412.532593,507.371063 410.731537,504.568024 409.232178,501.611389 
	C407.893921,498.972473 405.837372,498.117126 403.091370,498.657898 
	C399.962799,499.274017 401.444061,501.812622 401.270447,503.531647 
	C401.037415,505.838898 401.186615,508.186615 401.204773,510.516693 
	C401.216370,512.004639 400.464478,512.532959 399.042725,512.569031 
	C397.538757,512.607178 396.962860,511.964386 396.965912,510.506134 
	C396.986389,500.685669 397.003387,490.864990 396.953430,481.044708 
	C396.943695,479.129425 398.002533,478.918396 399.491638,478.962372 
	C402.816559,479.060638 406.143219,479.097931 409.468567,479.184052 
	C413.882690,479.298279 417.402588,481.213440 418.652649,485.464447 
	C419.880463,489.639648 419.137329,493.710327 414.808655,496.650940 
z"/>
<path fill="#F6F3F4" opacity="1.000000" stroke="none" 
	d="
M304.234070,488.290924 
	C305.380524,494.293854 305.813232,500.057587 303.004578,505.481598 
	C300.207703,510.882904 287.755798,514.934998 282.155792,512.483826 
	C280.652771,511.825958 280.991638,510.647491 280.988464,509.570709 
	C280.961060,500.277222 281.037262,490.982880 280.927948,481.690613 
	C280.901398,479.433838 281.737610,478.819855 283.824432,478.945892 
	C287.286957,479.155029 290.795990,478.651520 294.707184,479.721558 
	C299.222992,481.406158 302.456085,483.870453 304.234070,488.290924 
z"/>
<path fill="#F3F3F5" opacity="1.000000" stroke="none" 
	d="
M331.397339,512.509399 
	C330.699585,512.481140 330.453003,512.452820 329.851501,512.312012 
	C328.215302,509.821259 327.650421,507.278320 327.816406,504.587097 
	C328.042572,500.920471 326.559296,498.924377 322.672272,499.196716 
	C319.990509,499.384613 317.453125,498.713531 314.556213,497.893066 
	C314.120880,501.867462 314.075775,505.825684 314.027405,509.783875 
	C314.011261,511.102783 314.200684,512.456238 312.174469,512.559265 
	C310.030090,512.668335 309.772064,511.479767 309.779877,509.780701 
	C309.805756,504.170044 309.761749,498.559052 309.653564,492.575745 
	C309.640411,488.714844 309.760040,485.226593 309.777802,481.737823 
	C309.786163,480.092926 309.862274,478.880249 312.105652,478.924255 
	C314.224457,478.965912 314.013733,480.242889 314.026031,481.571320 
	C314.029114,481.904144 314.001495,482.239471 314.032562,482.569458 
	C314.353119,485.973633 312.448578,491.111938 314.948761,492.394714 
	C318.256500,494.091797 323.043793,492.855835 327.191986,492.983765 
	C329.464142,493.053802 329.433441,491.601654 329.427856,490.036102 
	C329.417786,487.206940 329.451477,484.377563 329.433228,481.548492 
	C329.423767,480.085541 329.615387,478.964172 331.530243,478.949188 
	C333.234497,478.935852 333.890869,479.568542 333.883514,481.270508 
	C333.841766,490.922974 333.852570,500.575684 333.865967,510.228333 
	C333.867920,511.632385 333.258759,512.401245 331.397339,512.509399 
z"/>
<path fill="#EEEEF2" opacity="1.000000" stroke="none" 
	d="
M385.759033,502.275635 
	C384.622528,502.233032 383.956482,502.225311 383.290436,502.224396 
	C375.536926,502.213745 375.514954,502.206482 372.962189,509.617645 
	C372.319763,511.482605 371.550415,513.263428 369.191650,512.456909 
	C366.796509,511.638000 368.546661,509.905487 368.902130,508.793335 
	C371.734314,499.932922 374.698700,491.114471 377.668854,482.298706 
	C378.220612,480.661133 378.387543,478.847595 381.075348,478.857483 
	C383.563080,478.866638 384.004089,480.177887 384.625641,482.018951 
	C387.632568,490.925568 390.843445,499.765015 393.697418,508.718994 
	C393.979706,509.604614 396.515442,511.717682 393.292358,512.551270 
	C390.992615,513.146118 390.039886,511.775452 389.357910,509.847931 
	C388.451080,507.285065 388.966217,504.116364 385.759033,502.275635 
z"/>
<path fill="#F4F4F7" opacity="1.000000" stroke="none" 
	d="
M369.790588,492.681396 
	C367.298798,498.268158 362.513702,499.408203 357.660675,499.048950 
	C352.541473,498.669922 351.316498,500.644257 351.982452,505.170929 
	C352.245087,506.956055 351.997711,508.813568 352.018829,510.637726 
	C352.036926,512.199219 351.158813,512.582703 349.785889,512.533142 
	C348.552551,512.488770 347.987213,511.912781 347.987305,510.708344 
	C347.988007,500.756744 348.000183,490.805084 347.972809,480.853546 
	C347.968384,479.252045 348.841003,478.970123 350.182739,478.967834 
	C354.493225,478.960541 358.828979,478.760437 363.062775,479.706726 
	C369.144043,481.066010 370.723724,484.100220 369.790588,492.681396 
z"/>
<path fill="#F5F0F1" opacity="1.000000" stroke="none" 
	d="
M157.434784,479.012573 
	C162.743530,484.115906 165.012924,490.841248 168.847031,496.586609 
	C170.400177,498.913910 171.647308,501.445435 173.967606,503.809082 
	C173.967606,498.666016 173.967484,493.522949 173.967636,488.379883 
	C173.967712,486.216309 173.963379,484.052673 173.970444,481.889130 
	C173.975296,480.407349 173.668381,478.857239 176.106003,478.936371 
	C178.626205,479.018219 178.004440,480.759521 178.010574,482.097809 
	C178.051819,491.084808 178.068832,500.072357 177.992142,509.058899 
	C177.981308,510.327057 178.881378,512.230042 176.417053,512.546936 
	C174.501114,512.793335 173.267807,511.992767 172.359985,510.369812 
	C168.797928,504.001801 165.237701,497.632050 161.580170,491.318909 
	C161.003250,490.323059 160.931793,488.283630 159.151260,488.815155 
	C157.538879,489.296448 158.279388,491.084320 158.259521,492.263916 
	C158.164261,497.920929 158.239761,503.580566 158.196182,509.238861 
	C158.185501,510.624542 158.728897,512.412842 156.327194,512.545532 
	C153.522202,512.700562 154.147858,510.658051 154.142288,509.126709 
	C154.109558,500.139648 154.182739,491.151855 154.088730,482.165680 
	C154.065659,479.958954 154.415985,478.543274 157.434784,479.012573 
z"/>
<path fill="#EDE6E8" opacity="1.000000" stroke="none" 
	d="
M195.093704,484.157562 
	C194.527802,480.162292 195.562637,478.353638 199.561539,478.888367 
	C202.681137,479.305573 205.887604,479.048523 209.018860,479.409088 
	C213.096313,479.878510 216.371506,481.663666 217.138016,486.153076 
	C217.894180,490.581909 217.015579,494.621613 212.686752,496.754089 
	C210.261185,497.948975 210.448975,498.783661 211.702820,500.750977 
	C213.989471,504.338745 215.934586,508.144196 218.065155,511.935333 
	C215.267593,513.236145 213.549774,512.570618 212.286392,510.322906 
	C210.579391,507.285919 208.546356,504.400726 207.144745,501.232910 
	C205.877594,498.369049 203.744141,498.358337 201.406265,498.706787 
	C198.522995,499.136536 199.820114,501.548950 199.668747,503.133636 
	C199.463730,505.279633 199.581085,507.460297 199.624084,509.624817 
	C199.657303,511.296936 199.400223,512.557373 197.278122,512.619446 
	C194.941544,512.687927 195.092255,511.161133 195.092987,509.626007 
	C195.096985,501.297516 195.094162,492.968994 195.093704,484.157562 
z"/>
<path fill="#EDE5E7" opacity="1.000000" stroke="none" 
	d="
M271.504333,482.390991 
	C279.688324,491.852844 277.623108,506.847473 267.812958,511.144348 
	C263.570435,513.002625 259.040863,512.584229 254.577057,512.592529 
	C252.389954,512.596619 252.380814,511.042725 252.381393,509.481232 
	C252.384796,500.337830 252.375641,491.194397 252.391571,482.050995 
	C252.394119,480.583771 252.129684,478.911987 254.485260,478.947266 
	C260.259094,479.033752 266.174316,478.328796 271.504333,482.390991 
z"/>
<path fill="#F2EDEE" opacity="1.000000" stroke="none" 
	d="
M125.119720,512.879639 
	C128.620895,502.124023 132.092148,491.405670 135.490433,480.664276 
	C136.030624,478.956818 137.208069,478.977509 138.593445,478.935608 
	C140.065826,478.891052 140.961258,479.172150 141.508911,480.815460 
	C144.740692,490.512970 148.096313,500.169495 151.465271,509.820587 
	C151.823135,510.845795 152.191406,511.937988 151.061127,512.365356 
	C149.867905,512.816528 148.347000,512.961853 147.417145,511.693634 
	C146.955093,511.063416 146.904999,510.139008 146.633881,509.359741 
	C144.061707,501.966522 142.527512,501.199280 134.572617,502.165375 
	C131.410477,502.549408 131.822281,505.007568 131.024338,506.813629 
	C129.917648,509.318481 130.459869,513.240967 125.493179,512.715698 
	C125.127869,512.802551 125.065689,512.909241 125.119720,512.879639 
z"/>
<path fill="#F8F4F5" opacity="1.000000" stroke="none" 
	d="
M226.201996,489.068054 
	C226.360001,493.705444 225.898224,497.864685 226.697052,502.009949 
	C227.509445,506.225555 229.409256,509.104675 234.128784,509.124878 
	C238.884567,509.145233 241.198288,506.187897 241.547089,502.005310 
	C242.029831,496.216583 241.867432,490.373810 241.973419,484.554047 
	C241.994644,483.388275 242.016129,482.220520 241.973450,481.056030 
	C241.921997,479.652161 242.389206,478.952606 243.954926,478.950806 
	C245.454208,478.949066 246.052063,479.477966 246.028687,480.965820 
	C245.913666,488.288147 246.264755,495.648682 245.621414,502.922363 
	C245.066879,509.191681 240.813828,512.740723 235.202118,513.014465 
	C228.103470,513.360718 224.379395,510.690186 222.772629,503.594604 
	C221.064255,496.050293 222.320755,488.349731 221.983231,480.727417 
	C221.907562,479.018494 222.982529,479.001038 224.239563,478.960693 
	C225.808838,478.910309 226.221222,479.701233 226.200699,481.084625 
	C226.163620,483.582855 226.197662,486.082092 226.201996,489.068054 
z"/>
<path fill="#F5F0F1" opacity="1.000000" stroke="none" 
	d="
M184.844574,510.922241 
	C184.795990,501.210175 184.749985,491.899109 184.830978,482.589142 
	C184.842911,481.217621 183.816666,479.035248 186.718842,478.960999 
	C189.520142,478.889313 188.846985,480.916718 188.853760,482.421082 
	C188.894196,491.399139 188.866592,500.377441 188.877411,509.355682 
	C188.881500,512.756348 187.696503,513.664734 184.844574,510.922241 
z"/>
<path fill="#47456E" opacity="1.000000" stroke="none" 
	d="
M314.444519,498.090454 
	C318.748535,495.521484 323.599304,497.169281 328.319489,497.073669 
	C329.794250,497.043823 329.471527,498.816833 329.484894,499.894012 
	C329.531769,503.674377 329.502563,507.455658 329.499451,511.718079 
	C323.969604,508.195587 319.868011,502.679535 314.444519,498.090454 
z"/>
<path fill="#662532" opacity="1.000000" stroke="none" 
	d="
M202.332855,386.527954 
	C190.447922,399.412170 177.506699,410.066803 160.009567,413.458252 
	C158.068253,413.834534 156.051270,413.938446 154.067307,413.957977 
	C138.580978,414.110291 131.410065,402.818817 138.035995,388.812988 
	C140.814697,382.939362 145.262314,378.502838 150.281662,374.602295 
	C158.072357,368.548187 166.671524,363.945007 176.385727,360.696381 
	C179.293274,361.181091 181.173660,362.701782 182.979675,364.489105 
	C188.742523,370.192291 194.256348,376.150116 200.351578,381.516541 
	C201.725754,382.726410 203.029892,384.065216 202.332855,386.527954 
z"/>
<path fill="#383966" opacity="1.000000" stroke="none" 
	d="
M202.471283,386.744507 
	C200.094177,382.689667 195.857788,380.609955 192.847321,377.315430 
	C187.799133,371.790955 182.401794,366.585510 176.954330,360.945251 
	C191.724670,354.556152 207.573410,352.730835 223.441986,351.018860 
	C226.080627,350.734161 228.736313,350.607330 231.938553,350.365723 
	C223.870041,364.128052 213.692169,375.676819 202.471283,386.744507 
z"/>
<path fill="#3A3B68" opacity="1.000000" stroke="none" 
	d="
M283.885010,331.936890 
	C277.321686,331.952240 271.235138,331.952240 264.543762,331.952240 
	C275.133514,317.689026 286.289215,304.477722 299.581024,292.609253 
	C300.646790,295.355103 299.353760,297.462708 298.926758,299.555664 
	C297.233215,307.857391 295.336853,316.118011 293.491760,324.388519 
	C291.879089,331.617279 291.864929,331.614136 283.885010,331.936890 
z"/>
<path fill="#2B5271" opacity="1.000000" stroke="none" 
	d="
M425.967957,352.294678 
	C431.554108,335.811401 438.226959,320.027252 442.240509,303.357208 
	C443.678680,297.383820 445.002106,291.375549 446.122223,285.335754 
	C446.700134,282.219635 447.828125,279.975708 450.779724,278.310211 
	C459.327606,273.486847 467.706970,268.464935 477.576599,266.598816 
	C491.086060,264.044586 499.761353,271.734314 498.679260,285.405731 
	C497.487732,300.459381 492.082184,314.168854 485.325348,327.406372 
	C476.319489,345.050079 465.345764,361.194672 448.677338,373.104523 
	C446.568634,373.784363 445.030487,373.209137 443.756531,372.013885 
	C438.172058,366.774658 432.781677,361.337860 427.499298,355.794922 
	C426.673401,354.928284 426.391815,353.762177 425.967957,352.294678 
z"/>
<path fill="#393A67" opacity="1.000000" stroke="none" 
	d="
M412.257660,337.824890 
	C407.891907,351.873413 401.650848,364.695190 395.611420,377.610596 
	C394.151001,380.733734 392.504364,379.197693 390.990753,378.154114 
	C387.668640,375.863647 386.211731,376.839630 384.668915,380.431549 
	C382.714417,384.981903 380.575073,388.931641 387.001678,391.534119 
	C388.711914,392.226715 388.142517,393.641937 387.552155,394.915833 
	C383.360138,403.960999 379.025269,412.927521 372.938232,420.903076 
	C371.743042,422.469086 370.521698,424.501923 368.172211,423.723114 
	C365.569855,422.860504 365.877472,420.323242 365.900665,418.200317 
	C366.026611,406.666687 369.860016,396.014435 374.171631,385.574646 
	C382.053436,366.490234 392.142761,348.568542 403.905029,331.201172 
	C408.731445,330.323883 410.782745,331.940765 412.257660,337.824890 
z"/>
<path fill="#383966" opacity="1.000000" stroke="none" 
	d="
M425.639282,352.174133 
	C433.176544,358.903778 440.450287,365.871826 448.038025,373.010071 
	C437.791412,381.217468 425.906525,384.776703 411.926453,383.802673 
	C416.498352,373.132080 420.937073,362.772308 425.639282,352.174133 
z"/>
<path fill="#325876" opacity="1.000000" stroke="none" 
	d="
M412.396240,337.953766 
	C410.096191,335.431671 407.924774,332.783691 404.476318,331.040527 
	C409.166901,322.503082 415.259094,314.820923 421.754333,307.158386 
	C420.026978,317.691742 416.181732,327.645325 412.396240,337.953766 
z"/>
<path fill="#325876" opacity="1.000000" stroke="none" 
	d="
M422.028198,307.029449 
	C422.143982,306.549225 422.321869,306.130951 422.499725,305.712646 
	C422.553253,306.152618 422.606781,306.592560 422.436279,307.125000 
	C422.212250,307.217438 422.090271,307.091370 422.028198,307.029449 
z"/>
<path fill="#47456E" opacity="1.000000" stroke="none" 
	d="
M469.237549,498.612183 
	C467.375244,498.957977 465.271881,499.691345 466.160065,496.685547 
	C467.460693,492.283966 468.842896,487.906494 470.521027,482.441895 
	C471.593903,486.425354 472.361267,489.274658 473.113495,492.516632 
	C473.186798,495.575714 471.964813,497.387177 469.237549,498.612183 
z"/>
<path fill="#2C5372" opacity="1.000000" stroke="none" 
	d="
M469.383698,498.885132 
	C469.418671,496.499908 471.424927,495.201019 472.847443,493.128540 
	C475.721771,498.955353 475.721771,498.955353 469.383698,498.885132 
z"/>
<path fill="#3C3D69" opacity="1.000000" stroke="none" 
	d="
M401.257324,484.289703 
	C405.045135,481.208374 408.980743,482.498047 412.501984,483.919281 
	C415.751495,485.230896 415.687439,491.083618 412.643921,493.226898 
	C409.614990,495.359833 406.050171,495.079224 402.591339,494.884430 
	C400.894257,494.788818 401.229126,493.301575 401.211914,492.211823 
	C401.172760,489.727264 401.207611,487.241486 401.257324,484.289703 
z"/>
<path fill="#6A2B38" opacity="1.000000" stroke="none" 
	d="
M300.308990,499.918640 
	C299.306274,503.627014 297.778656,506.463928 294.443115,507.946686 
	C287.871063,510.868134 285.188171,509.236359 285.188080,502.307037 
	C285.187988,496.828125 285.301575,491.345947 285.142090,485.871674 
	C285.062927,483.153809 286.203094,482.469086 288.691223,482.516113 
	C297.911987,482.690613 301.862488,488.355072 300.308990,499.918640 
z"/>
<path fill="#47456E" opacity="1.000000" stroke="none" 
	d="
M385.741455,498.262756 
	C376.063995,499.636230 376.028229,499.625183 378.865051,490.439178 
	C379.520691,488.315918 379.434937,485.841217 381.592773,483.963867 
	C383.043549,488.746857 384.423065,493.294952 385.741455,498.262756 
z"/>
<path fill="#393A67" opacity="1.000000" stroke="none" 
	d="
M365.989441,489.777954 
	C364.342010,494.513855 357.582062,497.413940 353.268433,495.766357 
	C351.977173,495.273163 352.066315,494.366943 352.037323,493.415558 
	C351.991791,491.922241 351.716278,490.345581 352.087433,488.950348 
	C352.700500,486.645599 349.626007,482.584259 355.271515,482.496948 
	C362.949097,482.378204 365.364868,483.742371 365.989441,489.777954 
z"/>
<path fill="#662532" opacity="1.000000" stroke="none" 
	d="
M158.621704,489.142883 
	C158.131348,488.080780 157.763077,487.246918 158.600540,486.638733 
	C158.649216,486.603394 159.032150,486.897369 159.142700,487.101440 
	C159.569183,487.888672 160.543228,488.739227 158.621704,489.142883 
z"/>
<path fill="#682835" opacity="1.000000" stroke="none" 
	d="
M199.607727,491.819336 
	C199.605240,489.680939 199.723206,488.011597 199.579361,486.365112 
	C199.346985,483.705475 200.128952,482.267731 203.112137,482.584381 
	C206.481598,482.942047 210.379044,481.937439 212.389389,485.789978 
	C213.504700,487.927307 213.516815,490.335358 211.790024,492.322052 
	C208.865768,495.686279 204.836349,494.797791 201.106171,494.872437 
	C199.369949,494.907227 199.720886,493.390442 199.607727,491.819336 
z"/>
<path fill="#672633" opacity="1.000000" stroke="none" 
	d="
M256.905365,498.965149 
	C256.906677,494.151123 256.984467,489.827759 256.876343,485.509033 
	C256.823914,483.414917 257.483215,482.446350 259.691284,482.604431 
	C262.183136,482.782837 264.672913,482.910126 266.878326,484.234802 
	C271.420532,486.963074 273.261505,493.800323 271.394562,500.847595 
	C269.950378,506.298981 266.535950,508.686096 260.465790,508.998749 
	C257.629059,509.144897 256.566406,508.288544 256.866394,505.437103 
	C257.073914,503.464447 256.905670,501.452271 256.905365,498.965149 
z"/>
<path fill="#6F323E" opacity="1.000000" stroke="none" 
	d="
M139.941406,487.257629 
	C141.085587,491.255096 142.158600,494.875397 143.313171,498.770935 
	C139.923615,498.770935 137.003983,498.770935 133.672836,498.770935 
	C135.197891,493.551300 136.632233,488.642090 138.292648,482.959167 
	C139.004013,484.727386 139.437119,485.803925 139.941406,487.257629 
z"/>
</svg>